<svg width="50" height="50" viewBox="0 0 50 50" fill="none" xmlns="http://www.w3.org/2000/svg">
<rect x="18" y="7" width="14" height="15" fill="white"/>
<rect x="12" y="25" width="26" height="10" fill="white"/>
<ellipse cx="24.5" cy="35.5" rx="10.5" ry="3.5" fill="white"/>
<path d="M25 4.16663C14.6458 4.16663 6.25 12.5625 6.25 22.9166C6.25 31.6041 12.1667 38.8958 20.1875 41.0208L25 45.8333L29.8125 41.0208C37.8333 38.8958 43.75 31.6041 43.75 22.9166C43.75 12.5625 35.3542 4.16663 25 4.16663ZM25 8.33329C28.4583 8.33329 31.25 11.125 31.25 14.5833C31.25 18.0416 28.4583 20.8333 25 20.8333C21.5417 20.8333 18.75 18.0416 18.75 14.5833C18.75 11.125 21.5417 8.33329 25 8.33329ZM25 38.125C19.7917 38.125 15.1875 35.4583 12.5 31.4166C12.5625 27.2708 20.8333 25 25 25C29.1458 25 37.4375 27.2708 37.5 31.4166C34.8125 35.4583 30.2083 38.125 25 38.125Z" fill="url(#paint0_linear)"/>
<defs>
<linearGradient id="paint0_linear" x1="25" y1="4.16663" x2="25" y2="45.8333" gradientUnits="userSpaceOnUse">
<stop stop-color="#6EE6B7"/>
<stop offset="0.28993" stop-color="#3B82F6"/>
<stop offset="1" stop-color="#793DED"/>
</linearGradient>
</defs>
</svg>
