<svg width="18" height="16" viewBox="0 0 18 16" fill="none" xmlns="http://www.w3.org/2000/svg">
<g clip-path="url(#clip0)">
<path d="M15.0004 6H11.4288L8.14447 0.251875C8.10067 0.175346 8.03744 0.111747 7.96116 0.0675164C7.88488 0.023286 7.79827 -5.52896e-06 7.71009 9.84476e-10L5.66322 9.84476e-10C5.33103 9.84476e-10 5.09134 0.317812 5.18259 0.637187L6.71478 6H3.50041L2.15041 4.2C2.05603 4.07406 1.90759 4 1.75041 4H0.500718C0.175405 4 -0.0633446 4.30563 0.0157179 4.62125L1.00041 8L0.0157179 11.3787C-0.0633446 11.6944 0.175405 12 0.500718 12H1.75041C1.90791 12 2.05603 11.9259 2.15041 11.8L3.50041 10H6.71478L5.18259 15.3625C5.09134 15.6819 5.33103 16 5.66322 16H7.71009C7.88947 16 8.05509 15.9038 8.14416 15.7481L11.4288 10H15.0004C16.1051 10 18.0004 9.10469 18.0004 8C18.0004 6.89531 16.1051 6 15.0004 6Z" fill="black"/>
</g>
<defs>
<clipPath id="clip0">
<rect width="18" height="16" fill="white"/>
</clipPath>
</defs>
</svg>
